# xmcd
#
# Track frame offsets: 
#        150
#        9657
#        23715
#        35925
#        54347
#        62425
#        75850
#        88897
#        100657
#        111632
#        126367
#        141905
#        150895
#        160072
#        174290
#        186152
#        205025
#        220302
#        233957
#        246565
#        257450
#        263977
#
# Disc length: 3680 seconds
#
# Revision: 2
# Processed by: cddbd v1.5.1PL0 Copyright (c) Steve Scherf et al.
# Submitted via: ExactAudioCopy v0.95b3
#
DISCID=2a0e5e16
DTITLE=Mance Lipscomb - Texas Songster
DYEAR=2000
DGENRE=Blues
TTITLE0=Sugar Babe
TTITLE1=Going Down Slow
TTITLE2=Freddie
TTITLE3=Jack O' Diamonds
TTITLE4=Baby Please Don't Go
TTITLE5=One Thin Dime
TTITLE6=Shake, Shake, Mama
TTITLE7=Ella Speed
TTITLE8=Mama Don't Allow
TTITLE9=Ain't It Hard
TTITLE10='Bout A Spoonful
TTITLE11=Take Me Back Babe
TTITLE12=Rag in G
TTITLE13=Big Boss Man
TTITLE14=You Gonna Quit Me
TTITLE15=Blues in G
TTITLE16=Mama, Don't Dog Me
TTITLE17=Willie Poor Boy
TTITLE18=Tell Me Where You Stayed Last Night
TTITLE19=Knocking Down Windows
TTITLE20=Nobody's Fault But Mine
TTITLE21=Motherless Children
EXTD=
EXTT0=
EXTT1=
EXTT2=
EXTT3=
EXTT4=
EXTT5=
EXTT6=
EXTT7=
EXTT8=
EXTT9=
EXTT10=
EXTT11=
EXTT12=
EXTT13=
EXTT14=
EXTT15=
EXTT16=
EXTT17=
EXTT18=
EXTT19=
EXTT20=
EXTT21=
PLAYORDER=
